<svg width="187" height="94" viewBox="0 0 187 94" fill="none" xmlns="http://www.w3.org/2000/svg">
<g filter="url(#filter0_i_2_3)">
<path d="M13.6374 41.4019C12.0224 40.2355 10.4972 39.6523 9.06168 39.6523C8.16449 39.6523 7.44673 39.8916 6.90841 40.3701C6.37009 40.8486 6.10093 41.4168 6.10093 42.0748C6.10093 42.7028 6.38505 43.2411 6.95327 43.6897C7.5514 44.1383 8.4785 44.6617 9.73458 45.2598C10.9907 45.828 12.0075 46.3514 12.785 46.8299C14.6393 47.9664 15.5664 49.5664 15.5664 51.6299C15.5664 52.8561 15.2224 53.9776 14.5346 54.9944C13.8766 56.0112 12.9346 56.8187 11.7084 57.4168C10.4822 58.015 8.94206 58.314 7.08785 58.314C5.23364 58.314 3.21495 57.8505 1.03178 56.9234L1.70467 52.7065L2.19813 52.3925C3.09533 53.1701 4.06729 53.7682 5.11402 54.1869C6.19065 54.6056 7.17757 54.815 8.07477 54.815C9.00187 54.815 9.73458 54.5757 10.2729 54.0972C10.8112 53.6187 11.0804 53.0355 11.0804 52.3477C11.0804 51.6598 10.7813 51.0916 10.1832 50.643C9.58505 50.1944 8.64299 49.686 7.35701 49.1178C6.10093 48.5196 5.09907 47.9813 4.3514 47.5028C2.5271 46.3963 1.61495 44.8112 1.61495 42.7477C1.61495 41.4916 1.94393 40.3701 2.60187 39.3832C3.28972 38.3664 4.23178 37.5589 5.42804 36.9607C6.65421 36.3626 8.10467 36.0785 9.77944 36.1084C11.4542 36.1383 13.2037 36.5121 15.028 37.2299L14.3103 41.1327L13.6374 41.4019ZM24.4482 42.0748C26.452 42.0748 27.9473 42.4636 28.9342 43.2411C29.9211 44.0187 30.4146 45.0953 30.4146 46.471C30.4146 46.8598 30.3398 48.1308 30.1903 50.2841C30.1903 50.2841 30.1454 51.5103 30.0557 53.9626C30.0557 54.3514 30.1006 54.6206 30.1903 54.7701C30.28 54.8897 30.4595 54.9495 30.7286 54.9495C30.9978 54.9495 31.3118 54.9047 31.6707 54.815L32.0296 55.0841L31.581 57.4168C30.8632 57.8654 30.0557 58.1495 29.1585 58.2692C27.723 58.1495 26.8557 57.3271 26.5567 55.8019H26.3324C25.1959 56.9981 24.0445 57.8355 22.8782 58.314C21.2632 58.2841 19.9922 57.8505 19.0651 57.0131C18.138 56.1757 17.6744 55.0542 17.6744 53.6486C17.6744 51.4654 18.8258 50.1495 21.1286 49.7009L26.2875 48.7589V47.3682C26.2875 45.9028 25.5996 45.1701 24.2239 45.1701C22.8482 45.1701 21.2333 45.8131 19.3791 47.0991L19.0202 46.9196L18.5268 43.9589C20.5006 42.7028 22.4744 42.0748 24.4482 42.0748ZM22.6987 51.7645C22.0109 51.914 21.6669 52.3327 21.6669 53.0206C21.6669 54.3664 22.2501 55.0393 23.4165 55.0393C24.2838 55.0393 25.2109 54.5159 26.1978 53.4692L26.2875 50.957L22.6987 51.7645ZM40.1695 53.7832H40.4387L43.2648 45.0804L43.848 42.3439H47.706L42.5022 58H37.6574L33.2611 42.4785L37.4331 42.2542L37.8368 44.8561L40.1695 53.7832ZM52.8328 50.7776C53.0122 53.6187 54.3879 55.0393 56.9599 55.0393C58.4253 55.0393 59.9356 54.6206 61.4907 53.7832L61.8496 54.0523L61.2664 57.3271C59.7113 57.985 58.1412 58.329 56.5561 58.3589C54.0739 58.3589 52.1449 57.6411 50.7692 56.2056C49.3935 54.7701 48.7057 52.7963 48.7057 50.2841C48.7057 47.7421 49.3935 45.7533 50.7692 44.3178C52.1748 42.8523 53.9543 42.1196 56.1075 42.1196C58.2608 42.1196 59.8608 42.6729 60.9075 43.7794C61.9842 44.8561 62.5225 46.3514 62.5225 48.2654C62.5225 48.8636 62.4776 49.4766 62.3879 50.1047L61.715 50.7327L52.8328 50.7776ZM56.2421 45.0355C55.3748 45.0355 54.6421 45.3196 54.044 45.8879C53.4758 46.4561 53.1019 47.2636 52.9225 48.3103L58.5748 48.1308L58.6645 47.772C58.6346 45.9477 57.8272 45.0355 56.2421 45.0355Z" fill="#37AF34"/>
<path d="M74.91 58H70.3343L70.6035 51.9888L70.5586 50.7327L63.6502 36.3776H68.4951L68.9437 37.8579L72.6222 46.1121H72.981L77.0184 37.9925L77.6465 36.3776H82.3567L74.7754 50.643L74.6857 51.9888L74.91 58ZM90.6075 42.0748C93.0001 42.0748 94.7945 42.7477 95.9907 44.0935C97.187 45.4393 97.7851 47.428 97.7851 50.0598C97.7851 52.6916 97.1272 54.7402 95.8113 56.2056C94.5253 57.6411 92.701 58.3589 90.3384 58.3589C88.0057 58.3589 86.2262 57.686 85.0001 56.3402C83.8038 54.9645 83.2057 52.9607 83.2057 50.329C83.2057 47.6972 83.8487 45.6636 85.1346 44.228C86.4206 42.7925 88.2449 42.0748 90.6075 42.0748ZM90.473 45.0804C89.3963 45.0804 88.6188 45.4542 88.1402 46.2019C87.6617 46.9196 87.4225 48.1907 87.4225 50.015C87.4225 51.8393 87.6617 53.185 88.1402 54.0523C88.6188 54.8897 89.4113 55.3084 90.5178 55.3084C91.6244 55.3084 92.4169 54.9645 92.8954 54.2766C93.3739 53.5888 93.6131 52.3327 93.6131 50.5084C93.6131 48.6841 93.3589 47.3234 92.8505 46.4262C92.3421 45.529 91.5496 45.0804 90.473 45.0804ZM114.511 54.9495C114.781 54.9495 115.095 54.9047 115.453 54.815L115.767 55.0841L115.364 57.4168C114.646 57.8654 113.824 58.1495 112.896 58.2692C111.491 58.1495 110.609 57.3121 110.25 55.757H109.891C108.605 56.9832 107.289 57.7907 105.943 58.1794C104.268 58.1794 102.982 57.8056 102.085 57.0579C101.188 56.2804 100.739 55.1589 100.739 53.6935L100.829 49.7458L100.695 42.6579L105.001 42.2991L104.867 52.2131C104.867 53.7981 105.539 54.5907 106.885 54.5907C107.842 54.5907 108.814 54.157 109.801 53.2897V42.6579L114.063 42.2991L113.794 53.9626C113.794 54.6206 114.033 54.9495 114.511 54.9495ZM124.684 54.6804C125.371 54.6804 126.104 54.5009 126.882 54.1421L127.241 54.5009L126.792 57.1028C125.686 57.7009 124.534 58.0598 123.338 58.1794C120.317 57.8804 118.792 56.415 118.762 53.7832L118.942 50.957V45.1701H116.833L116.654 44.9907L116.878 42.5234H118.852V39.9215L122.934 38.6206L123.248 38.8897L123.114 42.5234H127.151L127.286 42.7477L127.106 45.1701H123.069L122.889 52.7065C122.889 53.4243 123.009 53.9327 123.248 54.2318C123.517 54.5308 123.996 54.6804 124.684 54.6804ZM136.967 45.7981C136.13 45.7981 135.158 46.2467 134.052 47.1439L133.962 51.1364L134.186 58H129.745L129.969 51.4953L129.79 34.7626L134.231 34.4037L134.096 44.5869H134.276C135.502 43.4505 136.833 42.643 138.268 42.1645C139.973 42.1645 141.274 42.5533 142.171 43.3308C143.068 44.1084 143.502 45.215 143.472 46.6505L143.382 51.1364L143.562 58H139.076L139.345 48.2654C139.405 46.6206 138.612 45.7981 136.967 45.7981Z" fill="#EB1F1F"/>
<path d="M162.675 41.7159C162.675 44.1981 161.584 45.8879 159.4 46.785C162.301 47.443 163.752 49.1477 163.752 51.8991C163.752 56.086 160.462 58.1794 153.883 58.1794C151.969 58.1794 149.995 58.1196 147.961 58L148.23 51.5402L147.961 36.3776L155.677 36.3327C157.89 36.3327 159.61 36.7963 160.836 37.7234C162.062 38.6505 162.675 39.9813 162.675 41.7159ZM158.01 42.3439C158.01 41.357 157.726 40.6542 157.158 40.2355C156.589 39.8168 155.572 39.6075 154.107 39.6075H152.447L152.358 45.4841L155.498 45.6187C157.172 45.1701 158.01 44.0785 158.01 42.3439ZM155.139 54.9047C156.245 54.9047 157.187 54.6355 157.965 54.0972C158.743 53.529 159.131 52.7215 159.131 51.6748C159.131 50.0897 158.085 49.1028 155.991 48.714L152.268 48.7589L152.223 51.1364L152.358 54.7701C153.135 54.8598 154.062 54.9047 155.139 54.9047ZM176.115 36.243C179.225 36.243 181.618 37.1252 183.293 38.8897C184.997 40.6243 185.85 43.271 185.85 46.8299C185.85 50.3589 184.908 53.1402 183.024 55.1738C181.139 57.2075 178.448 58.2243 174.949 58.2243C172.467 58.2243 169.939 58.1495 167.367 58L167.637 51.5402L167.367 36.3776L176.115 36.243ZM181.095 47.4131C181.095 44.7813 180.661 42.8673 179.794 41.671C178.956 40.4449 177.61 39.8318 175.756 39.8318C174.56 39.8318 173.289 39.9065 171.943 40.0561L171.764 51.1364L171.853 54.5009C173.409 54.6206 174.71 54.6804 175.756 54.6804C179.315 54.6804 181.095 52.2579 181.095 47.4131Z" fill="#DCD416"/>
</g>
<defs>
<filter id="filter0_i_2_3" x="1.03177" y="34.4037" width="184.818" height="27.9551" filterUnits="userSpaceOnUse" color-interpolation-filters="sRGB">
<feFlood flood-opacity="0" result="BackgroundImageFix"/>
<feBlend mode="normal" in="SourceGraphic" in2="BackgroundImageFix" result="shape"/>
<feColorMatrix in="SourceAlpha" type="matrix" values="0 0 0 0 0 0 0 0 0 0 0 0 0 0 0 0 0 0 127 0" result="hardAlpha"/>
<feOffset dy="4"/>
<feGaussianBlur stdDeviation="2"/>
<feComposite in2="hardAlpha" operator="arithmetic" k2="-1" k3="1"/>
<feColorMatrix type="matrix" values="0 0 0 0 0 0 0 0 0 0 0 0 0 0 0 0 0 0 0.25 0"/>
<feBlend mode="normal" in2="shape" result="effect1_innerShadow_2_3"/>
</filter>
</defs>
</svg>

